<svg width="130" height="31" viewBox="0 0 130 31" fill="none" xmlns="http://www.w3.org/2000/svg">
<path d="M48.5325 17.1011C50.2181 17.1011 50.5455 18.018 50.5455 20.1569C50.5455 23.1788 49.2409 23.1788 48.4262 23.1788H47.2377V17.1011H48.5325ZM48.668 7.59339C49.8566 7.59339 50.3329 8.72377 50.3329 10.2937C50.3329 12.287 49.7295 12.9928 48.8818 12.9928H47.2377V7.59214H48.6741L48.668 7.59339ZM41.8411 3.48384V27.2896H49.2922C54.469 27.2896 55.5561 23.7917 55.5561 20.8653C55.5561 18.3671 55.142 15.7736 52.4547 14.9157C54.2332 14.1621 55.6306 12.3397 55.6306 9.77879C55.6184 4.13821 51.8537 3.48384 49.3142 3.48384H41.8411Z" fill="#DA002A"/>
<path d="M63.7572 17.1011C65.4392 17.1011 65.7702 18.018 65.7702 20.1569C65.7702 23.1775 64.4657 23.1775 63.6509 23.1775H62.4563V17.1011H63.7572ZM63.8928 7.59339C65.0825 7.59339 65.5577 8.72377 65.5577 10.2937C65.5577 12.287 64.9543 12.9928 64.1065 12.9928H62.4563V7.59214H63.8928V7.59339ZM57.0609 3.48384V27.2896H64.5121C69.6912 27.2896 70.7784 23.7917 70.7784 20.8653C70.7784 18.3659 70.3618 15.7736 67.6782 14.9157C69.4518 14.1621 70.8456 12.341 70.8456 9.77879C70.8456 4.13821 67.0748 3.4851 64.5377 3.4851H57.0609V3.48384Z" fill="#DA002A"/>
<path d="M80.516 3.48384C80.516 3.48384 78.4945 11.5598 78.0364 13.0292C77.6064 11.5572 75.7339 3.48384 75.7339 3.48384H70.7062C70.7062 3.48384 75.2587 18.9323 75.2868 19.0064V27.2959H80.6773V19.014C80.7066 18.9273 85.2469 3.48384 85.2469 3.48384H80.516Z" fill="#DA002A"/>
<path d="M95.6309 3.48384C95.6309 3.48384 93.6118 11.5598 93.1513 13.0292C92.7213 11.5535 90.8451 3.48384 90.8451 3.48384H85.8284C85.8284 3.48384 90.3736 18.9323 90.4017 19.0064V27.2959H95.7922V19.014C95.8251 18.9323 100.362 3.48887 100.362 3.48887H95.6309V3.48384Z" fill="#DA002A"/>
<path d="M31.6597 18.1034L33.0547 10.9959L34.4496 18.1034H31.6597ZM36.2538 27.2896H40.8601L36.1878 3.48263H29.924L25.2505 27.2896H29.8568L30.8535 22.218H35.2509L36.2538 27.2896Z" fill="#DA002A"/>
<path d="M103.032 3.43988C103.258 3.43888 103.482 3.48396 103.691 3.57251C103.9 3.66105 104.09 3.79132 104.25 3.95576C104.409 4.12021 104.536 4.31557 104.622 4.53056C104.707 4.74555 104.751 4.9759 104.75 5.20829C104.75 5.55816 104.649 5.90016 104.46 6.19103C104.27 6.4819 104.002 6.70856 103.687 6.84233C103.373 6.9761 103.027 7.01098 102.693 6.94254C102.36 6.8741 102.053 6.70543 101.813 6.45786C101.572 6.21029 101.409 5.89495 101.343 5.55175C101.276 5.20855 101.311 4.8529 101.441 4.52981C101.572 4.20672 101.793 3.9307 102.076 3.73669C102.359 3.54268 102.692 3.43938 103.032 3.43988ZM103.032 6.70541C103.81 6.70541 104.425 6.03095 104.425 5.19824C104.434 5.00379 104.405 4.80933 104.34 4.62671C104.274 4.44409 104.173 4.27711 104.042 4.13595C103.912 3.99478 103.755 3.88238 103.581 3.80556C103.407 3.72875 103.22 3.68914 103.03 3.68914C102.841 3.68914 102.654 3.72875 102.48 3.80556C102.306 3.88238 102.149 3.99478 102.018 4.13595C101.888 4.27711 101.787 4.44409 101.721 4.62671C101.655 4.80933 101.626 5.00379 101.636 5.19824C101.637 6.03723 102.25 6.70541 103.032 6.70541ZM102.404 4.31153H103.162C103.345 4.31153 103.728 4.36051 103.728 4.82145C103.732 4.91238 103.705 5.00176 103.653 5.07514C103.6 5.14853 103.525 5.20163 103.44 5.22588V5.23592C103.659 5.27737 103.675 5.47958 103.684 5.65919C103.699 5.93173 103.684 5.98197 103.752 6.07617H103.427C103.372 6.00584 103.375 5.96564 103.366 5.67551C103.366 5.51475 103.348 5.34645 102.989 5.34645H102.724V6.07743H102.407V4.31153H102.404ZM102.722 5.10405H103.088C103.359 5.10405 103.405 4.94705 103.405 4.82145C103.405 4.60794 103.264 4.55393 103.061 4.55393H102.723V5.10405H102.722Z" fill="#DA002A"/>
</svg>
