<svg width="130" height="31" viewBox="0 0 130 31" fill="none" xmlns="http://www.w3.org/2000/svg">
<g clip-path="url(#clip0)">
<path d="M43.834 24.4339C42.2009 24.3051 40.775 23.9439 39.637 23.3709C37.9033 22.4978 36.6291 21.0288 36.0234 19.2049C35.5569 17.8002 35.5189 16.6943 35.887 15.2368C36.4973 12.8202 38.0483 10.7703 40.5187 9.11528C42.089 8.0633 43.685 7.36728 45.6593 6.8736C47.9378 6.3038 49.6821 6.2665 51.9929 6.73813C55.976 7.55108 58.2722 9.62276 58.6853 12.7762C58.7723 13.4402 58.7163 14.7653 58.5723 15.4513C58.1848 17.2976 57.1412 19.0692 55.5137 20.6441C53.3517 22.7362 50.4685 23.9924 46.9906 24.3575C46.4207 24.4173 44.2808 24.4691 43.834 24.4339ZM47.3029 20.1059C49.1682 19.8613 50.648 19.1517 51.784 17.9569C52.4794 17.2255 52.9533 16.4068 53.1723 15.5583C53.3108 15.0219 53.3235 14.1061 53.1991 13.6322C52.7856 12.0572 51.4302 11.0827 49.1817 10.7438C48.219 10.5987 47.4551 10.6487 46.3428 10.9296C44.4846 11.3989 42.8081 12.4799 41.9277 13.7764C41.2326 14.7998 40.9453 15.9824 41.1557 16.9538C41.267 17.4677 41.6338 18.2443 41.9369 18.6078C42.5972 19.3997 43.5782 19.9192 44.7615 20.1035C45.3928 20.2019 46.5623 20.203 47.3029 20.1059ZM23.3698 24.2508C19.7696 23.6099 17.2018 21.7041 16.4515 19.1161C16.2761 18.5113 16.2007 17.8765 16.201 17.0092C16.2015 15.6716 16.395 14.646 16.8661 13.4845C18.344 9.84054 22.1537 7.15817 26.8482 6.45621C27.3869 6.37565 28.084 6.3618 32.5051 6.34384C35.2785 6.33257 37.5476 6.33071 37.5475 6.33971C37.5475 6.34871 37.3102 7.28298 37.0203 8.41586L36.4932 10.4757L32.0849 10.5035C27.7417 10.5308 27.668 10.5331 27.0911 10.6545C25.297 11.0322 23.8063 11.7659 22.8348 12.7494C22.2922 13.2987 21.9439 13.8594 21.705 14.5685C21.5529 15.0199 21.5309 15.1614 21.5089 15.8337C21.4736 16.9134 21.6238 17.549 22.0879 18.2838C22.5025 18.9403 23.1947 19.4558 24.0848 19.7711C24.9431 20.0751 25.0171 20.0791 29.8529 20.0791H34.2889L34.2554 20.253C34.237 20.3486 34.0242 21.3056 33.7825 22.3797L33.343 24.3324L28.6373 24.3416C24.2532 24.3502 23.8932 24.344 23.3698 24.2508ZM56.0592 24.3191C56.0598 24.206 57.6071 21.1809 57.9953 20.5339C59.6972 17.6969 61.3019 16.0136 63.2203 15.053C63.8982 14.7136 64.4741 14.5478 66.0179 14.2479C68.0338 13.8563 70.5512 13.3223 71.5476 13.0751C73.0244 12.7086 73.6321 12.4715 73.8946 12.1595C74.0191 12.0116 74.0354 11.946 74.0354 11.5934C74.0354 11.1105 73.9415 10.8625 73.7042 10.7178C73.5292 10.6111 73.4519 10.6098 67.1495 10.6096L60.7719 10.6094L60.7383 10.4088C60.5778 9.45074 60.0055 8.56494 58.6949 7.24543C58.2162 6.76353 57.8245 6.36026 57.8245 6.34928C57.8245 6.3383 61.3937 6.32946 65.7561 6.32964C74.4262 6.32998 74.0972 6.31916 75.343 6.64507C77.0737 7.09787 78.3244 7.96838 78.903 9.12278C79.2146 9.74459 79.2972 10.1986 79.2643 11.1097C79.2346 11.9358 79.1382 12.3979 78.8524 13.0842C78.3519 14.2864 77.1864 15.4611 75.6939 16.2675C74.8192 16.74 73.4231 17.2085 72.6804 17.2787C71.995 17.3434 71.9312 17.5885 72.5239 17.8792C73.0896 18.1567 73.724 18.6064 74.2589 19.1092C75.1386 19.9361 75.6998 20.8324 75.8763 21.6928C75.9879 22.237 76.0389 23.1931 75.9905 23.8376L75.9514 24.3592H72.8743H69.7972L69.8315 24.2226C70.0009 23.5474 70.0679 22.418 69.9693 21.898C69.8185 21.1031 68.2338 19.5365 66.9655 18.9287C66.488 18.6999 66.3324 18.6961 65.9181 18.9031C65.0062 19.3588 63.6454 21.2157 62.4196 23.6771L62.0798 24.3592H59.0694C57.4137 24.3592 56.0591 24.3411 56.0592 24.3191ZM78.0462 24.3192C78.0452 24.2971 78.9532 20.2403 80.0639 15.3041L82.0832 6.32932H90.2308C94.712 6.32932 98.3784 6.34134 98.3784 6.35603C98.3784 6.38013 97.5626 10.1475 97.495 10.4355L97.4668 10.5559H91.9572C88.9269 10.5559 86.4476 10.5632 86.4476 10.572C86.4476 10.5809 86.3152 11.2478 86.1534 12.0539C85.9915 12.8601 85.8591 13.539 85.8591 13.5626C85.8591 13.5862 87.9055 13.6055 90.4067 13.6055C92.9079 13.6055 94.9548 13.6235 94.9554 13.6456C94.9561 13.6677 94.7695 14.5343 94.5408 15.5715L94.125 17.4573L89.521 17.4574L84.9169 17.4576L84.639 18.76C84.4861 19.4764 84.3611 20.0903 84.3611 20.1243C84.3611 20.1706 85.7213 20.1861 89.7914 20.1861C94.9287 20.1861 95.2216 20.1912 95.2186 20.2797C95.2169 20.3312 95.0179 21.2642 94.7764 22.3529L94.3374 24.3324L86.1927 24.346C81.7131 24.3534 78.0472 24.3414 78.0462 24.3192ZM96.3453 24.2885C96.3453 24.2389 100.098 8.09547 100.492 6.4497L100.52 6.32932H103.145C105.619 6.32932 105.767 6.33467 105.74 6.42295C105.689 6.59282 102.712 19.9565 102.712 20.0185C102.712 20.0633 104.194 20.0791 108.383 20.0791C111.502 20.0791 114.054 20.0918 114.054 20.1073C114.054 20.1381 113.349 23.4167 113.218 23.9981L113.136 24.3592H104.741C97.8173 24.3592 96.3453 24.3468 96.3453 24.2885Z" fill="#11589A"/>
</g>
<defs>
<clipPath id="clip0">
<rect width="98.977" height="18.3509" fill="white" transform="translate(15.5115 6.19242)"/>
</clipPath>
</defs>
</svg>
