<svg width="130" height="31" viewBox="0 0 130 31" fill="none" xmlns="http://www.w3.org/2000/svg">
<path d="M27.0162 16.1976H22.8456L22.594 15.4409H27.2658L27.0162 16.1976ZM26.5523 17.6019H23.3096L23.0579 16.8468H26.8019L26.5523 17.6019ZM26.0899 19.0077H23.7735L23.5238 18.2506H26.338L26.0899 19.0077ZM30.2786 13.7141L28.2199 12.5402L27.4786 14.7918H25.6437L24.9458 12.7249H24.922L24.2261 14.7918H22.3797L21.6384 12.5422L19.5811 13.7123C19.5811 13.7123 18.83 16.3647 21.6893 18.5437C22.6921 19.3085 23.4391 19.8038 24.1137 20.0342L23.9881 19.6564H25.8756L25.7499 20.0399C26.4204 19.8139 27.1635 19.3182 28.1605 18.5437C30.9961 16.3413 30.2786 13.7141 30.2786 13.7141ZM22.9713 11.7835L23.465 13.6492H23.4904L24.1709 11.632H25.74L26.4616 13.6491H26.4854L26.9042 11.7891L24.9337 10.6663L22.9713 11.7835ZM21.4671 8.36962L20.077 6.94593L21.5988 6.0001H17.562L20.4072 9.48846L21.4671 8.36962ZM16.5021 10.8237L19.0189 11.3328L19.7699 10.2926L14.7264 8.68006L15.9808 12.6505L16.5021 10.8237ZM16.0416 14.3161L18.3561 13.7575L18.6886 12.2848L13 13.9621L16.5274 15.8497L16.0416 14.3161ZM15.558 17.2499L21.0913 23.9587L18.5115 15.4703L15.558 17.2499ZM30.8468 11.3328L33.3658 10.8237L33.8849 12.6504L35.1394 8.68006L30.0977 10.2926L30.8468 11.3328ZM28.3987 8.36962L29.4587 9.48836L32.3038 6H28.267L29.7888 6.94603L28.3987 8.36962ZM28.774 23.9587L34.3097 17.2499L31.3562 15.4703L28.774 23.9587ZM31.5092 13.7576L33.8241 14.3161L33.338 15.8496L36.8658 13.9621L31.1791 12.2848L31.5092 13.7576ZM21.2782 11.5473L24.9438 9.5019L28.6347 11.565C28.7272 11.3144 28.7743 11.0493 28.774 10.7821C28.774 9.1641 27.0653 7.85243 24.9615 7.85243C22.8553 7.85243 21.1485 9.164 21.1485 10.7821C21.1485 11.0476 21.1957 11.3033 21.2782 11.5473ZM113.846 8.96712C114.928 8.96712 115.829 9.91508 115.829 11.0596C115.829 12.2038 114.928 13.1518 113.846 13.1518C112.761 13.1518 111.864 12.2038 111.864 11.0596C111.864 9.91508 112.761 8.96712 113.846 8.96712ZM113.846 14.1506C115.553 14.1506 116.938 12.776 116.938 11.0596C116.938 9.3429 115.553 7.96841 113.846 7.96841C112.14 7.96841 110.755 9.34281 110.755 11.0596C110.755 12.776 112.14 14.1506 113.846 14.1506ZM113.548 10.2748H113.803C113.909 10.2748 114.177 10.2748 114.177 10.5482C114.177 10.8373 113.886 10.8373 113.78 10.8373H113.548V10.2748ZM113.587 11.4095H113.815C113.925 11.4095 114.09 11.4527 114.122 11.675L114.208 12.3415H115.223L115.05 11.563C114.995 11.315 114.814 11.1108 114.582 11.0931V11.0693C114.857 11.0181 115.14 10.8217 115.14 10.385C115.14 9.72023 114.511 9.67713 114.129 9.67713H112.623V12.3415H113.587V11.4095ZM103.413 17.9477H102.193V15.3836H103.306C103.72 15.3836 105.21 15.3836 105.21 16.6578C105.21 17.106 104.954 17.9477 103.413 17.9477ZM102.193 10.4875H103.432C104.758 10.4875 105.135 11.1697 105.135 11.6888C105.135 12.0488 104.974 12.9098 103.326 12.9098H102.193V10.4875ZM110.122 17.1416C110.122 15.1695 108.541 14.3435 107.287 14.1647V14.0938C108.848 13.8067 109.835 12.6404 109.835 11.2051C109.835 10.0389 109.115 7.94116 105.19 7.94116H97.6394V20.4963H104.939C106.535 20.4963 110.122 20.3154 110.122 17.1416ZM96.542 17.5371H90.2652V15.5802H96.1489V12.7113H90.2652V10.9003H96.4164V7.94106H85.4596V20.4962H96.5421L96.542 17.5371ZM72.4144 20.4962L74.389 12.3182H74.4595L76.5399 20.4962H81.704L84.7163 7.97818H80.4297L78.9075 15.9757H78.8365L76.8979 7.97818H72.2887L70.2986 15.9757H70.2276L68.7175 7.97818H64.2188L67.1405 20.4962H72.4144ZM64.8437 17.0433H60.9346V20.5043H64.8437V17.0433ZM57.582 17.0884C57.582 15.4566 58.6576 14.5952 60.0027 14.5952C60.3253 14.5952 60.6474 14.6661 60.9346 14.7386V10.9711C60.7026 10.9179 60.4312 10.8826 60.1992 10.8826C58.6931 10.8826 57.7257 12.0488 57.3657 13.2324H57.2948V11.0967H53.0631V20.4962H57.582V17.0884ZM43.6617 17.3558V10.9003H44.6294C45.7953 10.9003 46.9966 11.2958 46.9966 14.1998C46.9966 17.0336 45.7046 17.3558 44.6294 17.3558H43.6617ZM52.0522 14.2726C52.0522 11.5099 50.8155 7.94106 45.7401 7.94106H38.8561V20.4962H45.7401C50.9943 20.4962 52.0522 16.7663 52.0522 14.2726Z" fill="#65BC45"/>
</svg>
