<svg width="130" height="31" viewBox="0 0 130 31" fill="none" xmlns="http://www.w3.org/2000/svg">
<path d="M49.2766 17.1179L48.6389 18.9394H48.5857C48.4794 18.5287 48.2845 17.9036 47.9656 17.1536L44.5463 8.49268H41.1979V22.2966H43.4125V13.7785C43.4125 13.2428 43.4125 12.6356 43.3948 11.8856C43.3771 11.5106 43.3416 11.2249 43.3239 11.0106H43.3771C43.4834 11.5463 43.6074 11.9392 43.696 12.1892L47.8062 22.2609H49.3652L53.44 12.0999C53.5286 11.8678 53.6172 11.4035 53.7058 11.0106H53.7589C53.7058 12.0285 53.6703 12.9392 53.6526 13.4928V22.243H56.0089V8.45697H52.7845L49.2766 17.1179ZM58.2412 12.3499H60.5443V22.243H58.2412V12.3499ZM59.4105 8.17125C59.0207 8.17125 58.7018 8.31411 58.4361 8.56411C58.1703 8.81412 58.0286 9.13556 58.0286 9.52842C58.0286 9.90343 58.1703 10.2249 58.4361 10.4749C58.7018 10.7249 59.0207 10.8499 59.4105 10.8499C59.8002 10.8499 60.1368 10.707 60.3849 10.4749C60.6506 10.2249 60.7923 9.90343 60.7923 9.52842C60.7923 9.15341 60.6506 8.83198 60.3849 8.56411C60.1546 8.31411 59.8179 8.17125 59.4105 8.17125ZM68.7116 12.2606C68.2864 12.1714 67.8435 12.1178 67.4183 12.1178C66.373 12.1178 65.4163 12.3499 64.6191 12.8142C63.8219 13.2785 63.1841 13.9214 62.7766 14.725C62.3514 15.5464 62.1388 16.4929 62.1388 17.5822C62.1388 18.5287 62.3514 19.368 62.7589 20.1358C63.1663 20.8859 63.7333 21.493 64.4951 21.9037C65.2215 22.3145 66.0719 22.5288 67.0285 22.5288C68.127 22.5288 69.0659 22.2966 69.81 21.868L69.8277 21.8502V19.7073L69.7392 19.7787C69.4025 20.0287 69.0128 20.243 68.623 20.368C68.2155 20.5109 67.8435 20.5823 67.5246 20.5823C66.6033 20.5823 65.877 20.3144 65.3632 19.7251C64.8317 19.1537 64.566 18.3679 64.566 17.3858C64.566 16.3679 64.8317 15.5643 65.3809 14.975C65.9301 14.3857 66.6565 14.0821 67.5423 14.0821C68.2864 14.0821 69.0482 14.3321 69.7392 14.8321L69.8277 14.9036V12.6356L69.81 12.6178C69.5088 12.4928 69.1722 12.3499 68.7116 12.2606ZM76.312 12.1892C75.745 12.1892 75.2135 12.3678 74.7529 12.7428C74.3632 13.0642 74.0974 13.5285 73.8671 14.0821H73.8494V12.3499H71.5462V22.243H73.8494V17.1893C73.8494 16.3322 74.0265 15.6179 74.4163 15.1C74.8061 14.5643 75.3021 14.2964 75.9045 14.2964C76.1171 14.2964 76.3297 14.35 76.5954 14.3857C76.8435 14.4571 77.0206 14.5286 77.1446 14.6178L77.2332 14.6893V12.3678L77.1801 12.3499C77.0206 12.2428 76.7017 12.1892 76.312 12.1892ZM82.5836 12.1356C80.9714 12.1356 79.6781 12.6178 78.7746 13.5642C77.8533 14.5107 77.4104 15.8143 77.4104 17.4572C77.4104 18.993 77.871 20.243 78.7568 21.1537C79.6427 22.0466 80.8474 22.5109 82.3533 22.5109C83.93 22.5109 85.1879 22.0288 86.0915 21.0644C87.0127 20.1001 87.4556 18.8144 87.4556 17.2251C87.4556 15.6536 87.0304 14.4036 86.1623 13.4928C85.3296 12.5821 84.1072 12.1356 82.5836 12.1356ZM84.4261 19.743C84.0009 20.2966 83.3277 20.5644 82.495 20.5644C81.6623 20.5644 80.9891 20.2966 80.5108 19.7073C80.0324 19.1537 79.8021 18.3501 79.8021 17.3322C79.8021 16.2786 80.0501 15.475 80.5108 14.9036C80.9891 14.3321 81.6446 14.0464 82.4773 14.0464C83.2923 14.0464 83.93 14.3143 84.3907 14.8678C84.8513 15.4214 85.0993 16.225 85.0993 17.2786C85.0639 18.3501 84.869 19.1894 84.4261 19.743ZM92.5934 16.4572C91.867 16.1536 91.4064 15.9214 91.1938 15.725C91.0166 15.5464 90.9281 15.2964 90.9281 14.975C90.9281 14.7071 91.0343 14.4393 91.3001 14.2607C91.5658 14.0821 91.867 13.9928 92.3099 13.9928C92.6997 13.9928 93.1072 14.0643 93.4969 14.1714C93.8867 14.2785 94.241 14.4393 94.5245 14.6536L94.6131 14.725V12.5464L94.5599 12.5285C94.2942 12.4214 93.9398 12.3142 93.5147 12.2249C93.0895 12.1535 92.6997 12.1178 92.3808 12.1178C91.2824 12.1178 90.3788 12.3856 89.6702 12.9749C88.9615 13.5285 88.6249 14.2785 88.6249 15.1536C88.6249 15.6179 88.6958 16.0286 88.8552 16.3679C89.0147 16.7072 89.245 17.0286 89.5639 17.2965C89.8828 17.5465 90.3434 17.8322 90.9812 18.1001C91.5127 18.3322 91.9202 18.5108 92.1682 18.6537C92.4162 18.7965 92.5757 18.9572 92.6997 19.0822C92.7883 19.2251 92.8414 19.4037 92.8414 19.6358C92.8414 20.2966 92.3454 20.618 91.3355 20.618C90.9458 20.618 90.5383 20.5466 90.0599 20.3859C89.5816 20.2251 89.1387 19.993 88.7666 19.7251L88.6781 19.6537V21.9216L88.7312 21.9395C89.0678 22.1002 89.4753 22.2073 89.9714 22.3323C90.4674 22.4216 90.9103 22.4931 91.3001 22.4931C92.4871 22.4931 93.4615 22.2252 94.1524 21.6359C94.8611 21.0644 95.2332 20.3323 95.2332 19.3858C95.2332 18.7251 95.056 18.1358 94.6662 17.6894C94.1524 17.2608 93.5147 16.8143 92.5934 16.4572ZM101.31 12.1356C99.6977 12.1356 98.4044 12.6178 97.5009 13.5642C96.5973 14.5107 96.1367 15.8143 96.1367 17.4572C96.1367 18.993 96.5973 20.243 97.4831 21.1537C98.369 22.0466 99.5737 22.5109 101.08 22.5109C102.656 22.5109 103.914 22.0288 104.818 21.0644C105.739 20.1001 106.182 18.8144 106.182 17.2251C106.182 15.6536 105.757 14.4036 104.889 13.4928C104.056 12.5821 102.834 12.1356 101.31 12.1356ZM103.135 19.743C102.71 20.2966 102.036 20.5644 101.204 20.5644C100.353 20.5644 99.6977 20.2966 99.2194 19.7073C98.741 19.1537 98.5107 18.3501 98.5107 17.3322C98.5107 16.2786 98.7587 15.475 99.2194 14.9036C99.6977 14.3321 100.353 14.0464 101.186 14.0464C101.983 14.0464 102.639 14.3143 103.099 14.8678C103.56 15.4214 103.808 16.225 103.808 17.2786C103.808 18.3501 103.578 19.1894 103.135 19.743ZM118.495 14.2607V12.3499H116.174V9.42128L116.103 9.43914L113.906 10.0999L113.853 10.1177V12.3499H110.381V11.0999C110.381 10.5284 110.522 10.082 110.77 9.79629C111.019 9.51057 111.391 9.36771 111.851 9.36771C112.17 9.36771 112.507 9.43914 112.879 9.59985L112.967 9.65343V7.63552L112.914 7.61766C112.595 7.51051 112.17 7.43908 111.621 7.43908C110.93 7.43908 110.328 7.5998 109.778 7.86767C109.229 8.17125 108.822 8.58197 108.52 9.13556C108.219 9.67128 108.06 10.2784 108.06 10.9749V12.3499H106.448V14.2428H108.06V22.243H110.381V14.2607H113.853V19.3501C113.853 21.4395 114.828 22.4931 116.776 22.4931C117.095 22.4931 117.432 22.4395 117.751 22.3859C118.087 22.3145 118.335 22.2252 118.477 22.1538L118.495 22.1359V20.2251L118.406 20.2966C118.265 20.3859 118.141 20.4573 117.928 20.5109C117.751 20.5644 117.591 20.5823 117.467 20.5823C117.007 20.5823 116.688 20.4751 116.457 20.2073C116.245 19.9573 116.139 19.5465 116.139 18.9394V14.2607H118.495Z" fill="#737373"/>
<path d="M11.5051 3.8497H22.3653V14.7964H11.5051V3.8497Z" fill="#F25022"/>
<path d="M23.4991 3.8497H34.3593V14.7964H23.4991V3.8497Z" fill="#7FBA00"/>
<path d="M11.5051 15.9393H22.3653V26.886H11.5051V15.9393Z" fill="#00A4EF"/>
<path d="M23.4991 15.9393H34.3593V26.886H23.4991V15.9393Z" fill="#FFB900"/>
</svg>
