<svg width="130" height="31" viewBox="0 0 130 31" fill="none" xmlns="http://www.w3.org/2000/svg">
<path d="M36.9318 15.7844C36.9318 14.4387 36.8037 13.4133 36.9318 13.2852C38.2776 13.2852 39.4311 14.3746 39.4311 15.7844C39.4311 17.1942 38.3417 18.2836 36.9318 18.2836C36.8678 17.771 36.9318 17.1942 36.9318 15.7844Z" fill="#4274E0"/>
<path d="M32.8946 8.73531C34.1122 8.0304 35.4579 7.64591 36.9959 7.64591C41.4817 7.64591 45.1344 11.2986 45.1344 15.7844C45.1344 20.2702 41.4176 23.9229 36.9318 23.9229C35.4579 23.9229 34.1122 23.5384 32.9587 22.8976" stroke="#4274E0" stroke-width="0.833074" stroke-miterlimit="10"/>
<path d="M28.8574 15.7844C28.8574 14.4387 28.7292 13.4133 28.8574 13.2852C30.2031 13.2852 31.3566 14.3746 31.3566 15.7844C31.3566 17.1942 30.2672 18.2836 28.8574 18.2836C28.7933 17.771 28.8574 17.1942 28.8574 15.7844Z" fill="#EA6D61"/>
<path d="M24.8202 8.73531C26.0378 8.0304 27.3835 7.64591 28.9215 7.64591C33.4073 7.64591 37.06 11.2986 37.06 15.7844C37.06 20.2702 33.4073 23.9229 28.9215 23.9229C27.4476 23.9229 26.1018 23.5384 24.9484 22.8976" stroke="#EA6D61" stroke-width="0.833074" stroke-miterlimit="10"/>
<path d="M20.783 15.7844C20.783 14.4387 20.6549 13.4133 20.783 13.2852C22.1288 13.2852 23.2823 14.3746 23.2823 15.7844C23.2823 17.1942 22.1929 18.2836 20.783 18.2836C20.6549 17.771 20.783 17.1942 20.783 15.7844Z" fill="#F8BB62"/>
<path d="M16.6817 8.73531C17.8993 8.0304 19.245 7.64591 20.783 7.64591C25.2688 7.64591 28.9215 11.2986 28.9215 15.7844C28.9215 20.2702 25.2688 23.9229 20.783 23.9229C19.3091 23.9229 17.9634 23.5384 16.8099 22.8976" stroke="#F8BB62" stroke-width="0.833074" stroke-miterlimit="10"/>
<path d="M12.7086 18.2836C14.0889 18.2836 15.2078 17.1647 15.2078 15.7844C15.2078 14.4041 14.0889 13.2852 12.7086 13.2852C11.3283 13.2852 10.2094 14.4041 10.2094 15.7844C10.2094 17.1647 11.3283 18.2836 12.7086 18.2836Z" fill="#50AEA0"/>
<path d="M12.7086 23.9229C17.2033 23.9229 20.8471 20.2792 20.8471 15.7844C20.8471 11.2896 17.2033 7.64591 12.7086 7.64591C8.2138 7.64591 4.57007 11.2896 4.57007 15.7844C4.57007 20.2792 8.2138 23.9229 12.7086 23.9229Z" stroke="#4FAE9F" stroke-width="0.833074" stroke-miterlimit="10"/>
<path d="M50.0687 14.0542C50.0687 13.0288 50.0046 12.1958 50.0046 11.3627H51.5426L51.6066 12.9648H51.6707C52.1834 12.0035 53.1446 11.1704 54.7467 11.1704C56.0283 11.1704 57.0537 12.0035 57.5022 13.157H57.5663C57.8867 12.5803 58.2712 12.1958 58.6557 11.8753C59.2325 11.4268 59.8733 11.1704 60.7705 11.1704C62.0521 11.1704 63.9746 12.0035 63.9746 15.464V21.2955H62.2444V15.7203C62.2444 13.7978 61.5395 12.7084 60.1296 12.7084C59.1043 12.7084 58.3353 13.4774 58.0149 14.3105C57.9508 14.5668 57.8867 14.8872 57.8867 15.2076V21.2955H56.1565V15.3999C56.1565 13.7978 55.4516 12.7084 54.1059 12.7084C53.0165 12.7084 52.1834 13.6056 51.9271 14.5027C51.7989 14.7591 51.7989 15.0795 51.7989 15.3999V21.3596H50.0687V14.0542Z" fill="black"/>
<path d="M75.7018 16.2971C75.7018 19.9498 73.2025 21.5518 70.8315 21.5518C68.2041 21.5518 66.1534 19.5653 66.1534 16.4893C66.1534 13.2211 68.3323 11.2345 70.9596 11.2345C73.7793 11.2345 75.7018 13.2852 75.7018 16.2971ZM68.0118 16.3611C68.0118 18.5399 69.2294 20.142 70.9596 20.142C72.6258 20.142 73.9074 18.5399 73.9074 16.2971C73.9074 14.6309 73.0744 12.5162 70.9596 12.5162C68.909 12.5803 68.0118 14.5027 68.0118 16.3611Z" fill="black"/>
<path d="M77.9446 14.0542C77.9446 13.0288 77.9446 12.1958 77.8806 11.3627H79.4826L79.6108 12.9648H79.6749C80.1875 12.0676 81.2769 11.1064 82.879 11.1064C84.2247 11.1064 86.3395 11.9394 86.3395 15.3358V21.2314H84.5452V15.5281C84.5452 13.926 83.9684 12.5803 82.3023 12.5803C81.1488 12.5803 80.2516 13.4133 79.9312 14.4387C79.8671 14.695 79.803 14.9513 79.803 15.2717V21.2314H77.9446V14.0542Z" fill="black"/>
<path d="M97.9384 16.2971C97.9384 19.9498 95.4392 21.5518 93.0682 21.5518C90.4408 21.5518 88.3901 19.5653 88.3901 16.4893C88.3901 13.2211 90.5689 11.2345 93.1963 11.2345C96.0801 11.2345 97.9384 13.2852 97.9384 16.2971ZM90.2485 16.3611C90.2485 18.5399 91.4661 20.142 93.1963 20.142C94.8625 20.142 96.1441 18.5399 96.1441 16.2971C96.1441 14.6309 95.3111 12.5162 93.1963 12.5162C91.1457 12.5803 90.2485 14.5027 90.2485 16.3611Z" fill="black"/>
<path d="M101.912 15.9126C102.168 15.5921 102.488 15.1436 102.809 14.7591L105.693 11.3627H107.807L104.09 15.3999L108.384 21.2314H106.205L102.873 16.4893L101.976 17.5146V21.2314H100.245V6.81282H101.976V15.9126H101.912Z" fill="black"/>
<path d="M118.445 16.2971C118.445 19.9498 115.946 21.5518 113.575 21.5518C110.947 21.5518 108.897 19.5653 108.897 16.4893C108.897 13.2211 111.075 11.2345 113.703 11.2345C116.586 11.2345 118.445 13.2852 118.445 16.2971ZM110.755 16.3611C110.755 18.5399 111.973 20.142 113.703 20.142C115.369 20.142 116.651 18.5399 116.651 16.2971C116.651 14.6309 115.817 12.5162 113.703 12.5162C111.652 12.5803 110.755 14.5027 110.755 16.3611Z" fill="black"/>
<path d="M122.867 9.05571V11.4268H125.43V12.7725H122.867V18.0914C122.867 19.3089 123.187 20.0138 124.212 20.0138C124.725 20.0138 124.981 19.9498 125.238 19.8857L125.302 21.2314C124.981 21.3596 124.405 21.4877 123.7 21.4877C122.867 21.4877 122.226 21.2314 121.777 20.7188C121.265 20.142 121.072 19.3089 121.072 18.1554V12.7725H119.598V11.4268H121.136V9.56837L122.867 9.05571Z" fill="black"/>
</svg>
